<svg xmlns="http://www.w3.org/2000/svg" width="0" height="0" style="position:absolute;width:0;height:0;overflow:hidden" aria-hidden="true" focusable="false">
  <symbol id="ico-twitch" viewBox="0 0 512 512">
    <path fill="currentColor" d="M80 0L32 96v320h128v96l96-96h128l96-96V0H80zm352 256l-64 64H256l-64 64v-64h-64V64h304v192zM336 112h48v112h-48V112zm-112 0h48v112h-48V112z"/>
  </symbol>
  <symbol id="ico-kick" viewBox="0 0 26 26">
    <path fill-rule="evenodd" clip-rule="evenodd" d="M1 0H9.76711V5.79452H12.589V2.82193H15.5616V0H24.1781V8.61645H21.3561V11.589H18.3836V14.411H21.3561V17.3836H24.1781V26H15.5616V23.1781H12.589V20.2055H9.76711V26H1V0Z" fill="currentColor"/>
  </symbol>
</svg>

